<svg width="63" height="61" viewBox="0 0 63 61" fill="none" xmlns="http://www.w3.org/2000/svg">
<g clip-path="url(#clip0_1_412)">
<path d="M11.3142 0H51.6853C57.93 0 62.9995 5.02526 62.9995 11.2145V49.7855C62.9995 55.9752 57.9295 61 51.6853 61H11.3142C5.06944 61 0 55.9747 0 49.7855V11.2145C0 5.02526 5.06995 0 11.3142 0Z" fill="#43091F"/>
<path d="M22.689 17.9258H16.6608V45.5695H22.689V17.9258Z" fill="#E94869"/>
<path d="M40.311 15.4305V23.9009H36.6305C31.4619 23.9009 27.2719 28.0539 27.2719 33.1769V36.2934C27.2719 41.4165 31.4619 45.5695 36.6305 45.5695H40.311C40.311 45.5695 46.2732 45.114 46.3393 43.3368V15.4305H40.311ZM40.311 40.645H38.0625C35.2431 40.645 32.9575 38.3795 32.9575 35.585V33.8859C32.9575 31.0913 35.2431 28.8258 38.0625 28.8258H40.311V40.645Z" fill="#E94869"/>
</g>
<defs>
<clipPath id="clip0_1_412">
<rect width="63" height="61" fill="white"/>
</clipPath>
</defs>
</svg>
