<svg width="644" height="644" viewBox="0 0 644 644" fill="none" xmlns="http://www.w3.org/2000/svg">
<g clip-path="url(#clip0_1_431)">
<path d="M321.997 641.905C498.677 641.905 641.905 498.677 641.905 321.997C641.905 145.316 498.677 2.0879 321.997 2.0879C145.316 2.0879 2.08789 145.316 2.08789 321.997C2.08789 498.677 145.316 641.905 321.997 641.905Z" stroke="url(#paint0_linear_1_431)" stroke-width="6" stroke-miterlimit="10"/>
<path d="M321.997 601.929C476.599 601.929 601.929 476.599 601.929 321.997C601.929 167.394 476.599 42.0643 321.997 42.0643C167.394 42.0643 42.0643 167.394 42.0643 321.997C42.0643 476.599 167.394 601.929 321.997 601.929Z" stroke="url(#paint1_linear_1_431)" stroke-width="5.25" stroke-miterlimit="10"/>
<path d="M321.997 561.973C454.532 561.973 561.973 454.532 561.973 321.997C561.973 189.461 454.532 82.0198 321.997 82.0198C189.461 82.0198 82.0198 189.461 82.0198 321.997C82.0198 454.532 189.461 561.973 321.997 561.973Z" stroke="url(#paint2_linear_1_431)" stroke-width="4.5" stroke-miterlimit="10"/>
<path d="M321.997 522.059C432.488 522.059 522.059 432.488 522.059 321.997C522.059 211.505 432.488 121.934 321.997 121.934C211.505 121.934 121.934 211.505 121.934 321.997C121.934 432.488 211.505 522.059 321.997 522.059Z" stroke="url(#paint3_linear_1_431)" stroke-width="3.75" stroke-miterlimit="10"/>
<path d="M321.996 482.215C410.483 482.215 482.215 410.483 482.215 321.997C482.215 233.51 410.483 161.778 321.996 161.778C233.51 161.778 161.778 233.51 161.778 321.997C161.778 410.483 233.51 482.215 321.996 482.215Z" stroke="url(#paint4_linear_1_431)" stroke-width="3" stroke-miterlimit="10"/>
<path d="M321.997 442.517C388.558 442.517 442.517 388.558 442.517 321.997C442.517 255.435 388.558 201.476 321.997 201.476C255.435 201.476 201.476 255.435 201.476 321.997C201.476 388.558 255.435 442.517 321.997 442.517Z" stroke="url(#paint5_linear_1_431)" stroke-width="2.25" stroke-miterlimit="10"/>
<path d="M321.997 403.16C366.822 403.16 403.16 366.822 403.16 321.997C403.16 277.171 366.822 240.833 321.997 240.833C277.171 240.833 240.833 277.171 240.833 321.997C240.833 366.822 277.171 403.16 321.997 403.16Z" stroke="url(#paint6_linear_1_431)" stroke-width="1.5" stroke-miterlimit="10"/>
<path d="M321.997 365.112C345.808 365.112 365.112 345.808 365.112 321.997C365.112 298.185 345.808 278.881 321.997 278.881C298.185 278.881 278.881 298.185 278.881 321.997C278.881 345.808 298.185 365.112 321.997 365.112Z" stroke="url(#paint7_linear_1_431)" stroke-width="0.75" stroke-miterlimit="10"/>
<g clip-path="url(#clip1_1_431)">
<path d="M452.851 211.382L548.657 159.532C563.477 151.512 582.056 157.1 590.121 172.002L640.381 264.87C648.446 279.773 642.962 298.383 628.143 306.403L532.336 358.253C517.516 366.273 498.938 360.685 490.873 345.783L440.613 252.915C432.548 238.013 438.032 219.402 452.851 211.382Z" fill="#001E36"/>
<path d="M505.004 231.804L480.636 244.992L515.973 310.286L529.65 302.884L518.613 282.49L529.303 276.704C535.468 273.368 539.689 267.834 541.531 261.585C543.371 255.336 542.833 248.371 539.478 242.172C532.769 229.774 517.333 225.132 505.005 231.804L505.004 231.804ZM526.927 258.65C526.057 261.598 524.066 264.209 521.158 265.783L512.196 270.633L500.731 249.448L509.692 244.598C515.51 241.45 522.792 243.64 525.958 249.49C527.541 252.415 527.795 255.7 526.927 258.65Z" fill="#30A8FF"/>
<path d="M597.425 247.277C599.77 251.61 599.999 256.834 598.391 261.44C596.579 266.633 592.367 270.708 587.843 273.624C587.3 273.974 586.749 274.307 586.189 274.626C581.003 277.572 574.882 279.434 568.918 279.799C568.855 279.803 568.791 279.806 568.728 279.811C566.656 275.961 564.583 272.114 562.511 268.265C562.624 268.475 566.914 267.345 567.469 267.246C572.567 266.331 578.309 264.606 582.549 261.552C583.445 260.907 584.304 260.13 584.712 259.103C586.252 255.234 581.822 253.856 578.924 253.975C575.782 254.106 572.69 254.786 569.559 255.061C566.591 255.323 563.565 255.215 560.678 254.456C551.124 251.946 545.973 241.839 549.311 232.574C551.202 227.329 555.579 223.618 560.234 220.826C565.051 217.937 570.513 216.125 576.103 215.543C576.318 215.521 576.549 215.504 576.734 215.614C576.893 215.708 576.988 215.878 577.075 216.039C579.204 219.961 581.334 223.885 583.462 227.808C582.371 227.571 581.211 227.857 580.118 227.947C578.933 228.044 577.756 228.202 576.588 228.419C572.453 229.19 567.316 230.617 564.376 233.817C563.295 234.993 562.821 236.48 563.621 237.959C564.859 240.245 567.684 240.139 569.958 239.989C572.775 239.803 575.523 239.13 578.342 238.961C585.661 238.524 593.624 240.26 597.421 247.275L597.425 247.277Z" fill="#30A8FF"/>
</g>
<g clip-path="url(#clip2_1_431)">
<path d="M399.175 72.7691L358.955 32.3325C352.73 26.0737 342.606 26.0499 336.343 32.2793L297.34 71.0733C291.077 77.3027 291.047 87.4263 297.272 93.685L337.491 134.122C343.717 140.38 353.84 140.404 360.103 134.175L399.106 95.3809C405.369 89.1515 405.4 79.0278 399.175 72.7691Z" fill="#2D0402"/>
<path d="M371.583 94.4297L365.842 88.6571L344.727 109.658L350.469 115.431L371.583 94.4297Z" fill="#FF9A00"/>
<path d="M370.904 89.3644C372.726 91.1968 375.69 91.2038 377.524 89.38C379.358 87.5562 379.367 84.5922 377.544 82.7598C375.721 80.9274 372.757 80.9204 370.924 82.7443C369.09 84.5681 369.081 87.532 370.904 89.3644Z" fill="#FF9A00"/>
<path d="M360.113 69.484L352.716 62.0473C351.465 63.2915 350.008 64.3097 348.409 65.0562L315.602 80.3765L321.662 86.4689L330.494 82.0391L340.275 91.7313L335.768 100.651L342.176 107.093L360.113 69.484ZM337.532 78.2233L351.49 70.655L344.002 84.7277L337.532 78.2233Z" fill="#FF9A00"/>
</g>
<g clip-path="url(#clip3_1_431)">
<path d="M270.314 292H310.685C316.93 292 321.999 297.025 321.999 303.214V341.786C321.999 347.975 316.93 353 310.685 353H270.314C264.069 353 259 347.975 259 341.786V303.214C259 297.025 264.07 292 270.314 292Z" fill="#43091F"/>
<path d="M281.689 309.926H275.661V337.569H281.689V309.926Z" fill="#E94869"/>
<path d="M299.311 307.431V315.901H295.63C290.462 315.901 286.272 320.054 286.272 325.177V328.293C286.272 333.416 290.462 337.569 295.63 337.569H299.311C299.311 337.569 305.273 337.114 305.339 335.337V307.431H299.311ZM299.311 332.645H297.063C294.243 332.645 291.957 330.38 291.957 327.585V325.886C291.957 323.091 294.243 320.826 297.063 320.826H299.311V332.645Z" fill="#E94869"/>
</g>
</g>
<defs>
<linearGradient id="paint0_linear_1_431" x1="-1.32884e-05" y1="321.997" x2="644" y2="321.997" gradientUnits="userSpaceOnUse">
<stop stop-color="#350C50"/>
<stop offset="1" stop-color="#A435F0"/>
</linearGradient>
<linearGradient id="paint1_linear_1_431" x1="40.2409" y1="-1.54417e-05" x2="603.759" y2="-1.54417e-05" gradientUnits="userSpaceOnUse">
<stop stop-color="#350C50"/>
<stop offset="1" stop-color="#A435F0"/>
</linearGradient>
<linearGradient id="paint2_linear_1_431" x1="80.4539" y1="321.997" x2="563.546" y2="321.997" gradientUnits="userSpaceOnUse">
<stop stop-color="#350C50"/>
<stop offset="1" stop-color="#A435F0"/>
</linearGradient>
<linearGradient id="paint3_linear_1_431" x1="120.625" y1="321.997" x2="523.368" y2="321.997" gradientUnits="userSpaceOnUse">
<stop stop-color="#350C50"/>
<stop offset="1" stop-color="#A435F0"/>
</linearGradient>
<linearGradient id="paint4_linear_1_431" x1="160.727" y1="-5.75163e-06" x2="483.266" y2="-5.75163e-06" gradientUnits="userSpaceOnUse">
<stop stop-color="#350C50"/>
<stop offset="1" stop-color="#A435F0"/>
</linearGradient>
<linearGradient id="paint5_linear_1_431" x1="200.689" y1="1.18817e-05" x2="443.311" y2="1.18817e-05" gradientUnits="userSpaceOnUse">
<stop stop-color="#350C50"/>
<stop offset="1" stop-color="#A435F0"/>
</linearGradient>
<linearGradient id="paint6_linear_1_431" x1="240.304" y1="-2.95534e-05" x2="403.696" y2="-2.95534e-05" gradientUnits="userSpaceOnUse">
<stop stop-color="#350C50"/>
<stop offset="1" stop-color="#A435F0"/>
</linearGradient>
<linearGradient id="paint7_linear_1_431" x1="278.61" y1="321.996" x2="365.383" y2="321.996" gradientUnits="userSpaceOnUse">
<stop stop-color="#350C50"/>
<stop offset="1" stop-color="#A435F0"/>
</linearGradient>
<clipPath id="clip0_1_431">
<rect width="644" height="644" fill="white"/>
</clipPath>
<clipPath id="clip1_1_431">
<rect width="170" height="167" fill="white" transform="translate(426 225.914) rotate(-28.422)"/>
</clipPath>
<clipPath id="clip2_1_431">
<rect width="89" height="87" fill="white" transform="translate(347.684 21) rotate(45.1541)"/>
</clipPath>
<clipPath id="clip3_1_431">
<rect width="63" height="61" fill="white" transform="translate(259 292)"/>
</clipPath>
</defs>
</svg>
