<svg width="1674" height="824" viewBox="0 0 1674 824" fill="none" xmlns="http://www.w3.org/2000/svg">
<mask id="mask0_1_197" style="mask-type:luminance" maskUnits="userSpaceOnUse" x="0" y="0" width="1674" height="824">
<path d="M1673.91 0.0333862H0.693604V824H1673.91V0.0333862Z" fill="white"/>
</mask>
<g mask="url(#mask0_1_197)">
<path d="M1656.06 -51.7837H0.693604V855.511H1656.06V-51.7837Z" fill="url(#paint0_linear_1_197)"/>
<g opacity="0.16">
<path d="M97.7078 -37.3385H33.8728V25.2036H97.7078V-37.3385Z" fill="#350C50"/>
<path d="M164.078 27.676H100.243V90.218H164.078V27.676Z" fill="#350C50"/>
<path d="M98.9579 91.4771H35.1229V154.019H98.9579V91.4771Z" fill="#350C50"/>
</g>
<g opacity="0.16">
<path d="M97.7078 599.838H33.8728V662.38H97.7078V599.838Z" fill="#EFEFEF"/>
<path d="M164.078 664.852H100.243V727.394H164.078V664.852Z" fill="#EFEFEF"/>
<path d="M98.9579 728.653H35.1229V791.195H98.9579V728.653Z" fill="#EFEFEF"/>
</g>
<g opacity="0.16">
<path d="M99.9159 342.206H36.0809V404.748H99.9159V342.206Z" fill="#350C50"/>
<path d="M166.274 407.221H102.439V469.763H166.274V407.221Z" fill="#350C50"/>
<path d="M101.166 471.022H37.331V533.564H101.166V471.022Z" fill="#350C50"/>
</g>
<g opacity="0.16">
<path d="M228.859 91.1567H165.024V153.699H228.859V91.1567Z" fill="#350C50"/>
<path d="M295.229 156.183H231.394V218.725H295.229V156.183Z" fill="#350C50"/>
<path d="M230.109 219.972H166.274V282.514H230.109V219.972Z" fill="#350C50"/>
</g>
<g opacity="0.16">
<path d="M228.859 471.022H165.024V533.564H228.859V471.022Z" fill="#350C50"/>
<path d="M295.229 536.036H231.394V598.578H295.229V536.036Z" fill="#350C50"/>
<path d="M230.109 599.838H166.274V662.38H230.109V599.838Z" fill="#350C50"/>
</g>
<g opacity="0.16">
<path d="M165.013 277.798H101.178V340.341H165.013V277.798Z" fill="#A435F0"/>
<path d="M231.383 342.813H167.548V405.355H231.383V342.813Z" fill="#A435F0"/>
<path d="M166.263 406.614H102.428V469.156H166.263V406.614Z" fill="#A435F0"/>
</g>
<g opacity="0.16">
<path d="M413.39 838.399H477.225V775.857H413.39V838.399Z" fill="#350C50"/>
<path d="M478.51 774.598H542.345V712.056H478.51V774.598Z" fill="#350C50"/>
</g>
<g opacity="0.16">
<path d="M543.595 203.696H479.76V266.238H543.595V203.696Z" fill="#EFEFEF"/>
<path d="M477.225 138.681H413.39V201.223H477.225V138.681Z" fill="#EFEFEF"/>
<path d="M542.333 74.8801H478.498V137.422H542.333V74.8801Z" fill="#EFEFEF"/>
</g>
<g opacity="0.16">
<path d="M1502.87 760.439H1439.04V822.981H1502.87V760.439Z" fill="#EFEFEF"/>
</g>
<g opacity="0.16">
<path d="M477.552 523.88H541.387V461.338H477.552V523.88Z" fill="#350C50"/>
<path d="M411.193 458.843H475.028V396.301H411.193V458.843Z" fill="#350C50"/>
<path d="M476.302 395.053H540.137V332.511H476.302V395.053Z" fill="#350C50"/>
</g>
<g opacity="0.16">
<path d="M348.608 774.919H412.443V712.377H348.608V774.919Z" fill="#350C50"/>
<path d="M282.238 709.904H346.073V647.362H282.238V709.904Z" fill="#350C50"/>
<path d="M347.358 646.103H411.193V583.561H347.358V646.103Z" fill="#350C50"/>
</g>
<g opacity="0.16">
<path d="M348.608 395.053H412.443V332.511H348.608V395.053Z" fill="#350C50"/>
<path d="M282.238 330.028H346.073V267.485H282.238V330.028Z" fill="#350C50"/>
<path d="M347.358 266.238H411.193V203.696H347.358V266.238Z" fill="#350C50"/>
</g>
<g opacity="0.16">
<path d="M476.29 525.735H412.455V588.277H476.29V525.735Z" fill="#A435F0"/>
<path d="M409.92 460.72H346.085V523.262H409.92V460.72Z" fill="#A435F0"/>
<path d="M475.04 396.919H411.205V459.461H475.04V396.919Z" fill="#A435F0"/>
</g>
<g opacity="0.16">
<path d="M612.582 11.6628H548.747V74.2048H612.582V11.6628Z" fill="#350C50"/>
<path d="M678.952 76.6772H615.117V139.219H678.952V76.6772Z" fill="#350C50"/>
<path d="M613.832 140.478H549.997V203.02H613.832V140.478Z" fill="#350C50"/>
</g>
<g opacity="0.16">
<path d="M612.582 648.839H548.747V711.381H612.582V648.839Z" fill="#EFEFEF"/>
<path d="M678.952 713.853H615.117V776.395H678.952V713.853Z" fill="#EFEFEF"/>
<path d="M613.832 777.654H549.997V840.196H613.832V777.654Z" fill="#EFEFEF"/>
</g>
<g opacity="0.16">
<path d="M614.79 391.208H550.955V453.75H614.79V391.208Z" fill="#350C50"/>
<path d="M681.148 456.222H617.313V518.764H681.148V456.222Z" fill="#350C50"/>
<path d="M616.04 520.023H552.205V582.565H616.04V520.023Z" fill="#350C50"/>
</g>
<g opacity="0.16">
<path d="M743.733 140.158H679.898V202.7H743.733V140.158Z" fill="#350C50"/>
<path d="M810.103 205.184H746.268V267.726H810.103V205.184Z" fill="#350C50"/>
<path d="M744.983 268.973H681.148V331.515H744.983V268.973Z" fill="#350C50"/>
</g>
<g opacity="0.16">
<path d="M743.733 520.023H679.898V582.565H743.733V520.023Z" fill="#350C50"/>
<path d="M810.103 585.038H746.268V647.58H810.103V585.038Z" fill="#350C50"/>
<path d="M744.983 648.839H681.148V711.381H744.983V648.839Z" fill="#350C50"/>
</g>
<g opacity="0.16">
<path d="M679.887 326.8H616.052V389.342H679.887V326.8Z" fill="#A435F0"/>
<path d="M746.257 391.814H682.422V454.356H746.257V391.814Z" fill="#A435F0"/>
<path d="M681.137 455.615H617.302V518.157H681.137V455.615Z" fill="#A435F0"/>
</g>
<g opacity="0.16">
<path d="M993.384 823.599H1057.22V761.057H993.384V823.599Z" fill="#350C50"/>
</g>
<g opacity="0.16">
<path d="M1058.47 252.697H994.634V315.239H1058.47V252.697Z" fill="#EFEFEF"/>
<path d="M992.099 187.683H928.264V250.225H992.099V187.683Z" fill="#EFEFEF"/>
<path d="M1057.21 123.881H993.372V186.423H1057.21V123.881Z" fill="#EFEFEF"/>
</g>
<g opacity="0.16">
<path d="M992.426 572.882H1056.26V510.34H992.426V572.882Z" fill="#350C50"/>
<path d="M926.067 507.844H989.902V445.302H926.067V507.844Z" fill="#350C50"/>
<path d="M991.176 444.055H1055.01V381.513H991.176V444.055Z" fill="#350C50"/>
</g>
<g opacity="0.16">
<path d="M863.482 823.92H927.317V761.378H863.482V823.92Z" fill="#350C50"/>
<path d="M797.112 758.905H860.947V696.363H797.112V758.905Z" fill="#350C50"/>
<path d="M862.232 695.104H926.067V632.562H862.232V695.104Z" fill="#350C50"/>
</g>
<g opacity="0.16">
<path d="M863.482 444.055H927.317V381.513H863.482V444.055Z" fill="#350C50"/>
<path d="M797.112 379.029H860.947V316.487H797.112V379.029Z" fill="#350C50"/>
<path d="M862.232 315.239H926.067V252.697H862.232V315.239Z" fill="#350C50"/>
</g>
<g opacity="0.16">
<path d="M991.164 574.736H927.329V637.278H991.164V574.736Z" fill="#A435F0"/>
<path d="M924.794 509.722H860.959V572.264H924.794V509.722Z" fill="#A435F0"/>
<path d="M989.914 445.92H926.079V508.463H989.914V445.92Z" fill="#A435F0"/>
</g>
<g opacity="0.16">
<path d="M892.876 -31.8557H829.041V30.6863H892.876V-31.8557Z" fill="#350C50"/>
<path d="M959.246 33.1703H895.412V95.7123H959.246V33.1703Z" fill="#350C50"/>
<path d="M894.126 96.9599H830.291V159.502H894.126V96.9599Z" fill="#350C50"/>
</g>
<g opacity="0.16">
<path d="M1123.34 443.688H1059.51V506.23H1123.34V443.688Z" fill="#EFEFEF"/>
<path d="M1189.71 508.703H1125.88V571.245H1189.71V508.703Z" fill="#EFEFEF"/>
<path d="M1124.61 572.504H1060.77V635.046H1124.61V572.504Z" fill="#EFEFEF"/>
</g>
<g opacity="0.16">
<path d="M1125.55 186.057H1061.72V248.599H1125.55V186.057Z" fill="#350C50"/>
<path d="M1191.92 251.072H1128.09V313.614H1191.92V251.072Z" fill="#350C50"/>
<path d="M1126.8 314.873H1062.97V377.415H1126.8V314.873Z" fill="#350C50"/>
</g>
<g opacity="0.16">
<path d="M1320.87 0.0334167H1257.03V62.5755H1320.87V0.0334167Z" fill="#350C50"/>
<path d="M1255.76 63.823H1191.92V126.365H1255.76V63.823Z" fill="#350C50"/>
</g>
<g opacity="0.16">
<path d="M1254.51 314.873H1190.67V377.415H1254.51V314.873Z" fill="#350C50"/>
<path d="M1320.87 379.887H1257.03V442.429H1320.87V379.887Z" fill="#350C50"/>
<path d="M1255.76 443.688H1191.92V506.23H1255.76V443.688Z" fill="#350C50"/>
</g>
<g opacity="0.16">
<path d="M1190.65 121.649H1126.81V184.191H1190.65V121.649Z" fill="#A435F0"/>
<path d="M1257.02 186.664H1193.18V249.206H1257.02V186.664Z" fill="#A435F0"/>
<path d="M1191.9 250.465H1128.06V313.007H1191.9V250.465Z" fill="#A435F0"/>
</g>
<g opacity="0.16">
<path d="M1505.4 747.265H1569.23V684.723H1505.4V747.265Z" fill="#350C50"/>
<path d="M1439.04 682.239H1502.87V619.697H1439.04V682.239Z" fill="#350C50"/>
<path d="M1504.15 618.449H1567.98V555.907H1504.15V618.449Z" fill="#350C50"/>
</g>
<g opacity="0.16">
<path d="M1569.23 47.5466H1505.4V110.089H1569.23V47.5466Z" fill="#EFEFEF"/>
<path d="M1502.86 -17.4678H1439.03V45.0743H1502.86V-17.4678Z" fill="#EFEFEF"/>
</g>
<g opacity="0.16">
<path d="M1503.2 367.731H1567.03V305.189H1503.2V367.731Z" fill="#350C50"/>
<path d="M1436.83 302.705H1500.66V240.163H1436.83V302.705Z" fill="#350C50"/>
<path d="M1501.94 238.916H1565.77V176.374H1501.94V238.916Z" fill="#350C50"/>
</g>
<g opacity="0.16">
<path d="M1374.24 618.77H1438.08V556.228H1374.24V618.77Z" fill="#350C50"/>
<path d="M1307.87 553.755H1371.71V491.213H1307.87V553.755Z" fill="#350C50"/>
<path d="M1372.98 489.954H1436.82V427.412H1372.98V489.954Z" fill="#350C50"/>
</g>
<g opacity="0.16">
<path d="M1374.24 238.916H1438.08V176.374H1374.24V238.916Z" fill="#350C50"/>
<path d="M1307.87 173.89H1371.71V111.348H1307.87V173.89Z" fill="#350C50"/>
<path d="M1372.98 110.1L1436.82 110.1V47.5581L1372.98 47.5581V110.1Z" fill="#350C50"/>
</g>
<g opacity="0.16">
<path d="M1501.93 369.586H1438.09V432.128H1501.93V369.586Z" fill="#A435F0"/>
<path d="M1435.56 304.571H1371.72V367.113H1435.56V304.571Z" fill="#A435F0"/>
<path d="M1500.68 240.77H1436.84V303.312H1500.68V240.77Z" fill="#A435F0"/>
</g>
<g opacity="0.16">
<path d="M1639.48 -15.6707H1575.64V46.8713H1639.48V-15.6707Z" fill="#350C50"/>
</g>
<g opacity="0.16">
<path d="M1638.22 492.69H1574.38V555.232H1638.22V492.69Z" fill="#EFEFEF"/>
<path d="M1704.59 557.704H1640.75V620.246H1704.59V557.704Z" fill="#EFEFEF"/>
<path d="M1639.48 621.505H1575.64V684.047H1639.48V621.505Z" fill="#EFEFEF"/>
</g>
<g opacity="0.16">
<path d="M1640.43 235.058H1576.59V297.6H1640.43V235.058Z" fill="#350C50"/>
<path d="M1706.8 300.073H1642.96V362.615H1706.8V300.073Z" fill="#350C50"/>
<path d="M1641.68 363.874H1577.84V426.416H1641.68V363.874Z" fill="#350C50"/>
</g>
<g opacity="0.16">
<path d="M363.562 -31.8557H299.727V30.6863H363.562V-31.8557Z" fill="#350C50"/>
<path d="M429.932 33.1703H366.097V95.7123H429.932V33.1703Z" fill="#350C50"/>
<path d="M364.812 96.9599H300.977V159.502H364.812V96.9599Z" fill="#350C50"/>
</g>
<g opacity="0.16">
<path d="M1192.02 636.717H1128.18V699.259H1192.02V636.717Z" fill="#350C50"/>
<path d="M1258.39 701.732H1194.55V764.274H1258.39V701.732Z" fill="#350C50"/>
<path d="M1193.27 765.533H1129.43V828.075H1193.27V765.533Z" fill="#350C50"/>
</g>
<g opacity="0.16">
<path d="M1369.5 624.309H1305.67V686.852H1369.5V624.309Z" fill="#A435F0"/>
<path d="M1435.86 689.335H1372.02V751.878H1435.86V689.335Z" fill="#A435F0"/>
<path d="M1370.75 753.125H1306.92V815.667H1370.75V753.125Z" fill="#A435F0"/>
</g>
</g>
<defs>
<linearGradient id="paint0_linear_1_197" x1="0.693604" y1="401.864" x2="1656.06" y2="401.864" gradientUnits="userSpaceOnUse">
<stop stop-color="#350C50"/>
<stop offset="1" stop-color="#A435F0"/>
</linearGradient>
</defs>
</svg>
